<svg class="lazada-logo-container-img" viewBox="0 0 200 200" fill="none" xmlns="http://www.w3.org/2000/svg"><mask id="mask0_2182_6299" maskUnits="userSpaceOnUse" x="0" y="0" width="200" height="200"><circle cx="100" cy="100" r="100" fill="#D9D9D9"></circle></mask><g mask="url(#mask0_2182_6299)"><circle cx="100" cy="100" r="100" fill="#E8F0FF"></circle><path d="M86.5414 139.151C86.5414 139.151 86.1883 142.892 80.8 149.962C75.4118 157.033 73.3412 160.645 66.3883 166.151C63.0706 168.774 46.6942 178.068 36.7295 165.809L36.6706 165.727C26.7294 153.48 39.4588 139.715 42.7764 137.092C49.7294 131.586 53.7412 130.339 61.9176 126.704C70.0941 123.068 73.859 123.551 73.859 123.551" fill="#FF78FF"></path><path d="M71.7178 123.278C71.7178 123.278 69.5177 126.372 61.3177 129.878C53.1177 133.384 49.4942 135.49 40.7295 136.819C36.553 137.454 17.7532 137.348 15.3885 121.631V121.525C13.0356 105.784 30.953 100.125 35.1412 99.4896C43.9059 98.1602 47.9885 99.0778 56.8591 100.019C65.7297 100.96 68.7295 103.231 68.7295 103.231" fill="#00B3FF"></path><path d="M67.847 109.264C67.847 109.264 64.0942 110.017 55.6236 107.005C47.153 103.993 43.0236 103.029 35.6236 98.0288C32.0942 95.6758 18.247 82.7347 27.2823 69.7112L27.3412 69.617C36.3765 56.5464 53.5177 64.6288 57.0471 67.017C64.4471 72.017 66.8469 75.4759 72.7646 82.1817C78.6822 88.8876 79.3411 92.617 79.3411 92.617" fill="#FF78FF"></path><path d="M78.9648 94.8799C78.9648 94.8799 75.4354 93.2799 70.4589 85.7976C65.4824 78.3152 62.6708 75.0799 59.7061 66.6328C58.2943 62.5975 54.8591 43.9271 70.0473 38.6565H70.153C85.3295 33.4094 94.3177 50.127 95.7295 54.1623C98.6942 62.6211 98.553 66.8564 99.2589 75.8211C99.9648 84.7859 98.2826 88.2094 98.2826 88.2094" fill="#00B3FF"></path><path d="M119.976 94.8874C119.976 94.8874 123.4 93.1933 128.212 85.5933C133.024 77.9933 135.694 74.6992 138.435 66.2051C139.741 62.1345 142.682 43.405 127.435 38.5227H127.329C112.106 33.6403 103.565 50.5816 102.259 54.6522C99.5176 63.1698 99.7646 67.3933 99.2587 76.3698C98.7528 85.3463 100.541 88.7227 100.541 88.7227" fill="#FF78FF"></path><path d="M132.471 110.06C132.471 110.06 136.259 110.718 144.706 107.483C153.153 104.248 157.294 103.189 164.6 98.0008C168.129 95.5184 181.706 82.2831 172.282 69.4125L172.212 69.3184C162.8 56.3772 145.741 64.9654 142.247 67.4477C134.929 72.6477 132.6 76.1654 126.812 83.036C121.024 89.9065 120.471 93.6242 120.471 93.6242" fill="#00B3FF"></path><path d="M128.106 123.591C128.106 123.591 130.388 126.579 138.694 129.826C147 133.073 150.706 135.061 159.494 136.144C163.706 136.661 182.53 136.144 184.506 120.579V120.473C186.483 104.92 168.377 99.8024 164.165 99.2965C155.365 98.2024 151.224 99.2024 142.424 100.32C133.624 101.438 130.659 103.849 130.659 103.849" fill="#FF78FF"></path><path d="M113.283 139.669C113.283 139.669 113.73 143.446 119.165 150.469C124.6 157.493 126.835 161.058 133.871 166.493C137.235 169.058 153.718 178.046 163.283 165.399L163.353 165.316C172.929 152.669 159.953 139.058 156.612 136.481C149.553 131.093 145.553 129.916 137.365 126.458C129.177 122.999 125.435 123.564 125.435 123.564" fill="#00B3FF"></path><path fill-rule="evenodd" clip-rule="evenodd" d="M125.283 159.237C132.303 161.655 140.124 167.057 148.747 175.441C161.692 188.031 157.128 194.508 156.099 195.471C155.071 196.434 150.935 200.613 143.61 192.655C141.171 190.051 138.965 186.287 136.784 183.707C135.341 181.922 133.277 179.59 130.596 176.69L125.283 159.237Z" fill="white"></path><path fill-rule="evenodd" clip-rule="evenodd" d="M139.572 164.547C128.448 157.469 121.397 154.122 118.419 154.506C120.646 160.13 122.379 165.938 123.6 171.863L130.058 178.304L138.958 165.373" fill="#347EFD"></path><path fill-rule="evenodd" clip-rule="evenodd" d="M123.647 171.867C123.647 171.867 115.577 162.95 115.577 161.756C115.576 160.562 113.512 155.121 118.466 154.51C123.421 153.899 129.826 164.355 129.826 164.355" fill="#347EFD"></path><ellipse cx="1.17647" cy="1.17647" rx="1.17647" ry="1.17647" transform="matrix(-0.995175 -0.0981197 -0.0981197 0.995175 119.733 156.896)" fill="#595959"></ellipse><path fill-rule="evenodd" clip-rule="evenodd" d="M75.5417 159.237C68.5215 161.655 60.7001 167.057 52.0773 175.441C39.1325 188.031 43.6961 194.508 44.7249 195.471C45.7537 196.434 49.8894 200.613 57.2145 192.655C59.6531 190.051 61.8591 186.287 64.0401 183.707C65.4836 181.922 67.5473 179.59 70.2285 176.69L75.5417 159.237Z" fill="white"></path><path fill-rule="evenodd" clip-rule="evenodd" d="M61.2524 164.547C72.3763 157.469 79.4272 154.122 82.4048 154.506C80.1784 160.13 78.4448 165.938 77.2239 171.863L70.7659 178.304L61.8661 165.373" fill="#347EFD"></path><path fill-rule="evenodd" clip-rule="evenodd" d="M77.177 171.867C77.177 171.867 85.2468 162.95 85.2473 161.756C85.2478 160.562 87.3123 155.121 82.3579 154.51C77.4035 153.899 70.9982 164.355 70.9982 164.355" fill="#347EFD"></path><ellipse cx="82.3777" cy="157.951" rx="1.17647" ry="1.17647" transform="rotate(-5.6309 82.3777 157.951)" fill="#595959"></ellipse><path fill-rule="evenodd" clip-rule="evenodd" d="M65.7647 205.738C67.5344 192.367 69.2512 182.001 70.9147 174.639C73.1867 165.266 76.0731 156.053 79.5553 147.059H117.887C122.851 159.659 125.895 169.441 127.018 176.405C128.142 183.368 129.342 193.146 130.616 205.738H65.7647Z" fill="#1E71FF"></path><path fill-rule="evenodd" clip-rule="evenodd" d="M138.269 194.713C138.811 194.494 139.428 194.756 139.648 195.298C141.963 201.021 142.824 205.604 142.608 209.128C142.392 212.665 141.077 215.213 138.985 216.648C136.906 218.075 134.265 218.262 131.68 217.515C129.093 216.768 126.485 215.071 124.325 212.592C122.504 210.503 120.468 209.855 118.395 209.995C116.258 210.139 114.013 211.13 111.914 212.474C109.828 213.81 107.974 215.439 106.633 216.746C105.965 217.396 105.43 217.962 105.064 218.363C104.88 218.564 104.739 218.723 104.645 218.83C104.598 218.884 104.563 218.925 104.54 218.952L104.515 218.982L104.509 218.989L104.508 218.99C104.508 218.99 104.508 218.989 104.508 218.99C104.133 219.437 103.465 219.496 103.017 219.121C102.569 218.745 102.51 218.077 102.886 217.629L103.697 218.309C102.886 217.629 102.885 217.629 102.886 217.629L102.89 217.624L102.898 217.614L102.93 217.576C102.958 217.544 102.998 217.497 103.05 217.438C103.154 217.319 103.306 217.148 103.501 216.934C103.89 216.508 104.454 215.913 105.155 215.229C106.554 213.866 108.523 212.132 110.771 210.691C113.006 209.259 115.606 208.06 118.253 207.882C120.965 207.699 123.652 208.597 125.922 211.201C127.852 213.416 130.123 214.861 132.268 215.48C134.416 216.101 136.361 215.88 137.787 214.902C139.198 213.934 140.306 212.08 140.495 208.998C140.684 205.903 139.933 201.648 137.685 196.092C137.465 195.55 137.727 194.933 138.269 194.713Z" fill="white"></path><path d="M138.87 201.834C141.56 201.834 143.741 199.654 143.741 196.964C143.741 194.274 141.56 192.093 138.87 192.093C136.18 192.093 134 194.274 134 196.964C134 199.654 136.18 201.834 138.87 201.834Z" fill="#FF78FF"></path><path d="M82.9418 82.3647C82.7078 83.7981 82.0541 85.1299 81.063 86.1917C80.0719 87.2534 78.788 87.9972 77.3741 88.3291C75.9601 88.661 74.4794 88.566 73.1194 88.0562C71.7594 87.5464 70.5814 86.6446 69.734 85.4649C68.8867 84.2853 68.4083 82.8809 68.3594 81.4293C68.3105 79.9777 68.6933 78.5442 69.4593 77.3102C70.2254 76.0763 71.3402 75.0973 72.6628 74.4971C73.9854 73.897 75.4563 73.7025 76.8894 73.9386C78.8087 74.2547 80.524 75.3196 81.6588 76.8994C82.7936 78.4793 83.2551 80.4449 82.9418 82.3647Z" fill="white"></path><path d="M143.685 93.0874C143.407 94.7592 142.558 96.2829 141.283 97.3992C140.007 98.5155 138.385 99.1554 136.691 99.21C134.997 99.2645 133.337 98.7304 131.992 97.6984C130.648 96.6664 129.703 95.2005 129.318 93.55C128.932 91.8996 129.131 90.1667 129.88 88.6463C130.629 87.1258 131.881 85.9118 133.424 85.211C134.967 84.5101 136.705 84.3657 138.343 84.8023C139.981 85.2388 141.416 86.2295 142.406 87.6055C142.97 88.3898 143.373 89.2779 143.593 90.2187C143.812 91.1595 143.844 92.1344 143.685 93.0874Z" fill="white"></path><path d="M153.699 129.318C149.972 152.147 125.418 166.334 93.4521 161.104C61.1484 155.826 42.7175 134.609 46.4442 111.78C50.171 88.9506 77.2181 74.3788 106.828 79.2175C136.437 84.0562 157.425 106.489 153.699 129.318Z" fill="white"></path><path d="M86.3168 124.266C85.8824 127.068 83.9349 129.102 81.9319 128.808C79.9289 128.515 78.6548 125.985 79.0776 123.18C79.5005 120.376 81.448 118.342 83.4625 118.637C85.4771 118.933 86.728 121.459 86.3168 124.266Z" fill="black"></path><path d="M117.364 129.894C116.872 132.687 114.786 134.624 112.788 134.236C110.789 133.848 109.628 131.29 110.157 128.492C110.686 125.694 112.747 123.764 114.733 124.15C116.72 124.536 117.891 127.108 117.364 129.894Z" fill="black"></path><path d="M107.729 147.673C106.883 152.469 100.301 155.382 92.9043 154.174C85.5076 152.965 80.1317 148.087 80.908 143.278C81.6842 138.469 88.336 135.568 95.7326 136.777C103.129 137.986 108.501 142.887 107.729 147.673Z" fill="#FF8F00"></path><path d="M86.6184 141.377C86.6861 141.386 86.7508 141.41 86.8083 141.447C86.8657 141.484 86.9144 141.533 86.951 141.591C86.9885 141.647 87.0144 141.709 87.0274 141.775C87.0404 141.841 87.0402 141.909 87.0267 141.975L86.9184 142.589C86.7932 143.1 86.7733 143.63 86.86 144.149C86.9468 144.668 87.1382 145.163 87.4227 145.605C87.7073 146.047 88.0789 146.427 88.515 146.721C88.9511 147.015 89.4425 147.216 89.9592 147.314C90.4758 147.412 91.007 147.403 91.5202 147.288C92.0334 147.174 92.5179 146.956 92.9441 146.648C93.3704 146.34 93.7294 145.949 93.9993 145.498C94.2692 145.046 94.4444 144.545 94.5141 144.024L94.8737 141.985L91.1112 138.526C91.0624 138.486 91.023 138.437 90.9958 138.38C90.9685 138.324 90.9542 138.262 90.9537 138.199L91.5666 134.724C91.5792 134.66 91.608 134.601 91.6502 134.552C91.6923 134.503 91.7464 134.465 91.8072 134.443L93.9115 133.62L94.2244 133.675C94.2244 133.675 95.7348 135.136 95.9727 135.345C96.1614 135.498 96.3862 135.599 96.6256 135.639C96.8393 135.679 97.0587 135.677 97.2717 135.634C97.5682 135.579 99.5785 134.679 99.5901 134.681L99.8797 134.732C100.068 134.884 101.199 135.92 101.541 136.219C101.587 136.265 101.621 136.321 101.642 136.383C101.662 136.445 101.667 136.51 101.657 136.574L101.044 140.05C101.02 140.107 100.983 140.159 100.937 140.2C100.89 140.241 100.835 140.272 100.775 140.289C100.624 140.334 97.2848 141.657 96.0015 142.16L95.6399 144.21C95.5142 144.721 95.4937 145.251 95.5797 145.77C95.6658 146.289 95.8565 146.784 96.1404 147.227C96.4243 147.669 96.7954 148.049 97.2309 148.343C97.6665 148.638 98.1574 148.84 98.6738 148.939C99.1902 149.037 99.7213 149.029 100.235 148.916C100.748 148.802 101.233 148.585 101.659 148.278C102.086 147.971 102.446 147.58 102.716 147.129C102.987 146.679 103.163 146.178 103.234 145.657L103.344 145.031C103.384 144.911 103.466 144.809 103.575 144.744C103.684 144.68 103.813 144.656 103.938 144.678C104.063 144.7 104.175 144.766 104.256 144.864C104.336 144.963 104.378 145.086 104.375 145.213L104.265 145.839C104.059 146.945 103.479 147.947 102.623 148.677C101.766 149.406 100.685 149.819 99.5596 149.846C98.4346 149.873 97.3346 149.513 96.4438 148.825C95.553 148.138 94.9257 147.165 94.667 146.07C94.0184 146.975 93.0809 147.633 92.0088 147.935C90.9367 148.237 89.7937 148.165 88.7679 147.731C87.7421 147.297 86.8945 146.527 86.3644 145.547C85.8343 144.568 85.6533 143.437 85.8512 142.341L85.9595 141.727C85.9768 141.655 86.0092 141.588 86.0544 141.53C86.0997 141.473 86.1567 141.425 86.2218 141.391C86.2833 141.361 86.3504 141.345 86.4186 141.342C86.4869 141.34 86.555 141.352 86.6184 141.377Z" fill="black"></path><path d="M71.1378 138.134C73.7421 138.593 76.2257 136.854 76.6849 134.249C77.1441 131.645 75.405 129.162 72.8008 128.703C70.1965 128.243 67.7131 129.982 67.2539 132.587C66.7947 135.191 68.5335 137.674 71.1378 138.134Z" fill="#FFAAD4"></path><path d="M48.2614 142.127C48.1576 142.108 48.0607 142.062 47.9806 141.993C47.9004 141.925 47.8398 141.836 47.8048 141.736C47.7779 141.66 47.7664 141.58 47.7708 141.499C47.7752 141.419 47.7956 141.34 47.8306 141.267C47.8657 141.194 47.9147 141.129 47.9749 141.076C48.0352 141.022 48.1053 140.981 48.1815 140.954L62.7149 135.836C62.8188 135.792 62.933 135.78 63.0439 135.799C63.1548 135.819 63.2578 135.87 63.3406 135.946C63.4289 136.019 63.4956 136.114 63.5335 136.222C63.5713 136.329 63.579 136.446 63.5553 136.557C63.529 136.666 63.4745 136.766 63.3973 136.846C63.3202 136.927 63.223 136.986 63.1158 137.017L48.5592 142.132C48.4618 142.161 48.3578 142.16 48.2614 142.127Z" fill="black"></path><path d="M46.5573 135.125C46.4098 135.105 46.2744 135.032 46.1757 134.921C46.0771 134.809 46.0216 134.666 46.0194 134.517C46.0297 134.373 46.0927 134.237 46.1964 134.137C46.3001 134.036 46.4374 133.977 46.5818 133.971L61.9885 132.638C62.1431 132.63 62.2949 132.681 62.4145 132.779C62.534 132.877 62.6129 133.017 62.6354 133.17C62.6442 133.244 62.6377 133.32 62.617 133.392C62.5962 133.464 62.5615 133.531 62.5145 133.59C62.4675 133.648 62.4094 133.697 62.3435 133.732C62.2775 133.768 62.205 133.79 62.1304 133.798L46.7353 135.133L46.5614 135.102L46.5573 135.125Z" fill="black"></path><path fill-rule="evenodd" clip-rule="evenodd" d="M51.5962 148.689C51.5134 148.673 51.4346 148.641 51.3648 148.594C51.295 148.546 51.2359 148.485 51.1908 148.414C51.0992 148.28 51.0636 148.115 51.0919 147.955C51.1201 147.794 51.21 147.652 51.342 147.557L64.2917 139.088C64.4293 139.017 64.5883 138.999 64.7381 139.039C64.888 139.079 65.0177 139.173 65.102 139.303C65.1861 139.431 65.218 139.586 65.1914 139.737C65.1648 139.888 65.0818 140.023 64.959 140.114L51.9977 148.58C51.8811 148.663 51.7387 148.702 51.5962 148.689Z" fill="black"></path><path d="M119.959 146.742C117.355 146.282 115.615 143.799 116.075 141.195C116.534 138.59 119.017 136.851 121.622 137.311C124.226 137.77 125.965 140.253 125.506 142.858C125.046 145.462 122.563 147.201 119.959 146.742Z" fill="#FFAAD4"></path><path d="M140.089 158.319C140.194 158.337 140.3 158.326 140.399 158.289C140.498 158.252 140.585 158.189 140.652 158.108C140.704 158.046 140.742 157.974 140.765 157.896C140.789 157.819 140.797 157.738 140.788 157.658C140.78 157.578 140.757 157.5 140.718 157.429C140.68 157.358 140.628 157.295 140.566 157.244L128.66 147.464C128.577 147.387 128.474 147.336 128.363 147.317C128.252 147.297 128.138 147.31 128.034 147.353C127.926 147.391 127.831 147.458 127.758 147.546C127.686 147.634 127.639 147.741 127.623 147.854C127.611 147.965 127.628 148.077 127.673 148.18C127.717 148.282 127.789 148.371 127.879 148.437L139.808 158.222C139.89 158.282 139.988 158.316 140.089 158.319Z" fill="black"></path><path d="M144.086 152.322C144.231 152.353 144.383 152.331 144.514 152.26C144.645 152.189 144.746 152.073 144.799 151.934C144.839 151.795 144.826 151.646 144.763 151.516C144.7 151.386 144.591 151.284 144.458 151.229L130.436 144.707C130.293 144.647 130.133 144.642 129.987 144.694C129.841 144.745 129.72 144.849 129.646 144.986C129.612 145.053 129.593 145.126 129.587 145.2C129.582 145.275 129.592 145.35 129.616 145.421C129.64 145.492 129.678 145.558 129.728 145.614C129.778 145.67 129.838 145.716 129.906 145.748L143.916 152.268L144.09 152.299L144.086 152.322Z" fill="black"></path><path fill-rule="evenodd" clip-rule="evenodd" d="M134.712 163.344C134.795 163.358 134.88 163.354 134.962 163.334C135.043 163.313 135.12 163.276 135.187 163.225C135.319 163.13 135.408 162.987 135.437 162.827C135.465 162.666 135.429 162.502 135.338 162.367L126.065 149.981C125.96 149.867 125.817 149.796 125.663 149.782C125.508 149.768 125.354 149.812 125.231 149.905C125.108 149.996 125.025 150.132 124.998 150.282C124.971 150.433 125.003 150.588 125.087 150.716L134.372 163.105C134.453 163.222 134.573 163.307 134.712 163.344Z" fill="black"></path></g></svg>